<?xml version="1.0" encoding="UTF-8" standalone="no"?>
<svg
   xml:space="preserve"
   width="192"
   height="192"
   viewBox="0 0 50.800002 50.800001"
   version="1.1"
   id="svg1047"
   sodipodi:docname="tunduk.svg"
   inkscape:version="1.4.2 (ebf0e940d0, 2025-05-08)"
   xmlns:inkscape="http://www.inkscape.org/namespaces/inkscape"
   xmlns:sodipodi="http://sodipodi.sourceforge.net/DTD/sodipodi-0.dtd"
   xmlns="http://www.w3.org/2000/svg"
   xmlns:svg="http://www.w3.org/2000/svg"><sodipodi:namedview
   id="namedview1"
   pagecolor="#ffffff"
   bordercolor="#000000"
   borderopacity="0.25"
   inkscape:showpageshadow="2"
   inkscape:pageopacity="0.0"
   inkscape:pagecheckerboard="0"
   inkscape:deskcolor="#d1d1d1"
   inkscape:zoom="1.3000001"
   inkscape:cx="165.76922"
   inkscape:cy="96.153839"
   inkscape:window-width="1366"
   inkscape:window-height="703"
   inkscape:window-x="0"
   inkscape:window-y="0"
   inkscape:window-maximized="1"
   inkscape:current-layer="g1065"
   showgrid="false" /><defs
   id="defs1051">
    
    
    
    
    
    
    
    
    
    
    
    
  </defs>
  <g
   id="g1065"
   transform="translate(-106.89167,-53.974998)"><path
     id="circle1017"
     style="fill:#ff0000;stroke:none;stroke-width:0.708708;stroke-dasharray:none;stroke-opacity:1;paint-order:markers fill stroke"
     d="M 132.29167 53.974998 A 25.400002 25.400002 0 0 0 106.89167 79.374999 A 25.400002 25.400002 0 0 0 132.29167 104.775 A 25.400002 25.400002 0 0 0 157.69167 79.374999 A 25.400002 25.400002 0 0 0 132.29167 53.974998 z M 132.29167 55.456561 A 22.52738 22.52738 0 0 1 154.81898 77.983869 A 22.52738 22.52738 0 0 1 132.29167 100.51118 A 22.52738 22.52738 0 0 1 109.76436 77.983869 A 22.52738 22.52738 0 0 1 132.29167 55.456561 z " /><g
     style="fill:#ff0000;stroke:#ff0000;stroke-opacity:1"
     id="g1031"
     transform="matrix(0.40000001,0,0,0.40000001,0,39.950004)">
      <g
   style="fill:#ff0000;stroke:#ff0000;stroke-opacity:1"
   id="g1023">
        <path
   d="m 669.75863,5.6998011 -3.09283,-0.936389 c -19.23257,1.8569712 -35.67898,14.4636009 -41.95897,24.5163789 -7.08927,11.348254 -7.99735,22.703735 -7.59164,34.131754 l 1.49205,3.948084 2.54428,-2.762623 C 620.66299,53.342547 620.82979,42.110613 627.91906,30.762359 634.19905,20.709581 644.46809,10.94454 667.7482,6.1429208 Z"
   style="fill:#ff0000;stroke:#ff0000;stroke-width:0.529167;stroke-dasharray:none;stroke-opacity:1;paint-order:markers fill stroke"
   transform="matrix(1.4285714,0,0,1.4285714,-576.36345,54.414627)"
   id="path1021" />
      </g>
      <path
   d="m 612.31214,60.193088 c -0.0966,-9.88266 2.30578,-20.135871 9.39505,-31.484125 6.27999,-10.052778 26.7484,-24.9175038 44.49576,-25.4150213 l -0.9584,-1.0475332 C 646.47559,1.3217334 625.23856,17.019082 618.95857,27.07186 611.8693,38.420114 608.16786,46.477733 608.24559,57.031144 l 1.73321,5.325349 z"
   style="fill:#ff0000;stroke:#ff0000;stroke-width:0.529167;stroke-dasharray:none;stroke-opacity:1;paint-order:markers fill stroke"
   transform="matrix(1.4285714,0,0,1.4285714,-576.36345,54.414627)"
   id="path1025" />
      <path
   d="m 604.33134,54.836111 c 0.0127,-8.242769 7.77208,-23.962283 12.89348,-30.390864 7.3857,-9.270817 24.12458,-22.4030047 46.68228,-23.6658046 l -1.50503,-1.2661853 c -20.05388,0.2387704 -42.19688,15.0767519 -48.36317,24.0601689 -6.14766,8.956255 -12.86791,20.389808 -13.00883,29.194002 l 1.73321,5.325349 z"
   style="fill:#ff0000;stroke:#ff0000;stroke-width:0.529167;stroke-dasharray:none;stroke-opacity:1;paint-order:markers fill stroke"
   transform="matrix(1.4285714,0,0,1.4285714,-576.36345,54.414627)"
   id="path1027" />
      <path
   d="m 598.09976,46.199353 c 1.87123,-8.133443 9.08399,-19.04261 14.20539,-25.471191 7.3857,-9.270817 25.98312,-21.7470494 48.54082,-23.0098493 l -1.28638,-1.2661852 C 639.50571,-3.3091021 615.1063,11.49295 608.68192,20.293645 c -5.81968,7.97232 -11.66532,16.344744 -12.57153,21.541178 l 0.85861,7.730522 z"
   style="fill:#ff0000;stroke:#ff0000;stroke-width:0.529167;stroke-dasharray:none;stroke-opacity:1;paint-order:markers fill stroke"
   transform="matrix(1.4285714,0,0,1.4285714,-576.36345,54.414627)"
   id="path1029" />
    </g><g
     style="fill:#ff0000;stroke:#ff0000;stroke-opacity:1"
     id="g1035"
     transform="matrix(0.40000001,0,0,0.40000001,0,39.950004)">
      <path
   d="m 669.75863,5.6998011 -3.09283,-0.936389 c -19.23257,1.8569712 -35.67898,14.4636009 -41.95897,24.5163789 -7.08927,11.348254 -7.99735,22.703735 -7.59164,34.131754 l 1.49205,3.948084 2.54428,-2.762623 C 620.66299,53.342547 620.82979,42.110613 627.91906,30.762359 634.19905,20.709581 644.46809,10.94454 667.7482,6.1429208 Z"
   style="fill:#ff0000;stroke:#ff0000;stroke-width:0.529167;stroke-dasharray:none;stroke-opacity:1;paint-order:markers fill stroke"
   transform="matrix(-1.4285714,0,0,1.4285714,1238.2744,54.414627)"
   id="path1033" />
    </g><path
     d="m 145.41711,96.111905 c 0.0552,-5.647232 -1.31759,-11.506212 -5.3686,-17.990928 -3.58857,-5.744445 -15.2848,-14.238574 -25.42615,-14.522869 l 0.54765,-0.598591 c 10.72513,-0.528385 22.86057,8.441528 26.44914,14.185973 4.05101,6.484715 6.16612,11.089071 6.1217,17.119591 l -0.99041,3.043056 z"
     style="fill:#ff0000;stroke:#ff0000;stroke-width:0.302381;stroke-dasharray:none;stroke-opacity:1;paint-order:markers fill stroke"
     id="path1037" /><path
     d="m 149.97756,93.050777 c -0.007,-4.710156 -4.44118,-13.692734 -7.3677,-17.366209 -4.2204,-5.29761 -13.78547,-12.801717 -26.67559,-13.523317 l 0.86002,-0.723534 c 11.45936,0.13644 24.1125,8.615287 27.6361,13.748667 3.51295,5.117861 7.35309,11.651321 7.43361,16.682289 l -0.9904,3.043056 z"
     style="fill:#ff0000;stroke:#ff0000;stroke-width:0.302381;stroke-dasharray:none;stroke-opacity:1;paint-order:markers fill stroke"
     id="path1039" /><path
     d="M 153.53847,88.115485 C 152.46919,83.467805 148.34762,77.233994 145.4211,73.560519 141.2007,68.26291 130.5736,61.133634 117.68349,60.412034 l 0.73507,-0.723534 c 11.45936,0.13644 25.40188,8.594756 29.07296,13.623724 3.32553,4.555611 6.6659,9.339853 7.18373,12.309245 l -0.49063,4.41744 z"
     style="fill:#ff0000;stroke:#ff0000;stroke-width:0.302381;stroke-dasharray:none;stroke-opacity:1;paint-order:markers fill stroke"
     id="path1041" /></g>
</svg>
