<?xml version="1.0" encoding="UTF-8" standalone="no"?>
<svg
   height="469"
   version="1.2"
   viewBox="0 0 441.20245 469"
   width="441.20245"
   id="svg1"
   sodipodi:docname="motif.svg"
   inkscape:export-filename="converted_motif2.svg"
   inkscape:export-xdpi="43.517437"
   inkscape:export-ydpi="43.517437"
   inkscape:version="1.4.2 (ebf0e940d0, 2025-05-08)"
   xmlns:inkscape="http://www.inkscape.org/namespaces/inkscape"
   xmlns:sodipodi="http://sodipodi.sourceforge.net/DTD/sodipodi-0.dtd"
   xmlns="http://www.w3.org/2000/svg"
   xmlns:svg="http://www.w3.org/2000/svg">
  <sodipodi:namedview
     id="namedview1"
     pagecolor="#ffffff"
     bordercolor="#000000"
     borderopacity="0.25"
     inkscape:showpageshadow="2"
     inkscape:pageopacity="0.0"
     inkscape:pagecheckerboard="0"
     inkscape:deskcolor="#d1d1d1"
     inkscape:zoom="0.96484375"
     inkscape:cx="250.81781"
     inkscape:cy="252.89069"
     inkscape:window-width="1366"
     inkscape:window-height="703"
     inkscape:window-x="0"
     inkscape:window-y="0"
     inkscape:window-maximized="1"
     inkscape:current-layer="svg1">
    <inkscape:page
       x="0"
       y="0"
       width="441.20245"
       height="469"
       id="page2"
       margin="0"
       bleed="0" />
  </sodipodi:namedview>
  <defs
     id="defs1" />
  <polygon
     fill="#ffffff"
     points="223,64 223,67 228,72 228,75 230,78 230,80 232,83 232,86 235,88 235,91 232,94 230,94 228,91 225,91 221,86 218,86 214,80 211,80 209,78 207,78 204,75 197,75 195,72 188,72 186,75 181,75 179,78 176,78 174,80 172,80 162,91 162,94 160,97 160,99 158,102 158,105 155,107 155,129 158,132 158,134 160,137 160,140 162,142 162,145 169,153 172,153 174,156 188,156 190,153 193,153 195,150 197,150 200,148 200,145 202,142 197,137 193,137 190,134 181,134 176,129 176,126 183,118 186,118 188,115 190,115 193,113 209,113 211,115 214,115 218,121 221,121 228,129 228,134 230,137 230,153 228,156 228,158 225,161 225,164 223,167 223,169 221,172 221,175 218,177 218,180 216,183 216,185 214,188 214,191 209,196 209,199 211,202 230,202 232,204 232,237 230,239 202,239 200,237 200,223 202,220 202,215 197,215 195,218 193,218 190,220 188,220 186,223 183,223 181,226 176,226 172,231 169,231 167,234 162,234 160,237 144,237 141,234 139,234 130,223 130,220 125,215 125,194 128,191 128,188 130,185 130,183 137,175 141,175 144,177 144,191 146,194 146,199 148,202 155,202 160,196 160,194 162,191 162,188 165,185 165,180 162,177 162,172 160,169 160,167 151,156 148,156 146,153 139,153 137,150 121,150 118,153 114,153 111,156 109,156 97,169 97,172 95,175 95,177 93,180 93,185 90,188 90,196 93,199 93,204 95,207 95,212 97,215 97,218 102,223 102,226 104,229 104,231 109,237 107,239 102,239 100,237 97,237 95,234 93,234 90,231 88,231 83,226 81,226 79,223 76,223 72,218 67,218 60,226 58,226 44,242 41,242 37,247 39,250 41,250 65,277 72,277 74,274 76,274 81,269 83,269 86,266 88,266 90,264 93,264 95,261 97,261 100,258 102,258 104,256 107,256 109,258 109,261 102,269 102,272 97,277 97,280 95,282 95,285 93,288 93,291 90,293 90,315 93,317 93,320 95,323 95,326 97,328 97,331 102,336 104,336 109,342 111,342 114,344 118,344 121,347 137,347 139,344 144,344 146,342 148,342 160,328 160,326 162,323 162,312 160,309 160,304 153,296 151,296 148,293 146,296 146,299 144,301 144,312 141,315 141,320 139,323 134,323 130,317 130,315 128,312 128,309 125,307 125,301 123,299 123,288 125,285 125,282 128,280 128,277 139,264 141,264 144,261 146,261 148,264 162,264 165,266 169,266 174,272 176,272 179,274 181,274 183,277 186,277 188,280 190,280 193,282 195,282 197,285 200,285 200,264 202,261 230,261 232,264 232,293 230,296 211,296 211,299 216,304 216,309 218,312 218,315 221,317 221,320 223,323 223,326 225,328 225,331 228,334 228,336 230,339 230,363 216,379 214,379 211,382 195,382 193,379 188,379 183,374 181,374 179,371 179,363 181,361 190,361 193,358 197,358 200,355 202,355 202,347 200,344 197,344 193,339 188,339 186,336 179,336 176,339 174,339 169,344 167,344 165,347 165,350 160,355 160,361 158,363 158,374 155,377 155,379 158,382 158,390 160,393 160,398 165,404 165,406 167,406 176,417 179,417 181,420 186,420 188,423 197,423 200,420 204,420 207,417 209,417 211,414 214,414 216,412 218,412 221,409 223,409 230,401 232,401 235,404 235,409 232,412 232,414 228,420 228,423 225,425 225,428 221,433 221,436 216,441 216,444 214,447 214,450 216,450 218,452 218,455 228,466 228,468 239,482 242,482 253,468 253,466 267,450 267,447 265,444 265,441 260,436 260,433 258,431 258,428 256,425 256,423 253,420 253,417 251,414 251,412 249,409 253,404 256,406 258,406 262,412 265,412 269,417 272,417 274,420 279,420 281,423 297,423 300,420 304,420 309,414 311,414 318,406 318,404 323,398 323,393 325,390 325,363 323,361 323,358 318,353 318,350 314,344 311,344 309,342 307,342 304,339 297,339 295,342 290,342 288,344 286,344 281,350 281,355 286,361 295,361 297,363 304,363 307,366 304,369 304,371 297,379 295,379 293,382 286,382 283,385 274,385 272,382 269,382 265,377 262,377 256,369 256,366 253,363 253,339 256,336 256,334 258,331 258,328 262,323 262,320 265,317 265,315 267,312 267,309 272,304 272,301 274,299 274,296 253,296 251,293 251,264 253,261 256,264 262,264 265,261 267,264 279,264 281,266 281,288 283,285 286,285 288,282 290,282 293,280 295,280 297,277 300,277 302,274 304,274 307,272 311,272 314,269 316,269 318,266 342,266 351,277 351,280 356,285 356,291 358,293 358,299 356,301 356,309 353,312 353,315 351,317 351,320 346,326 342,326 337,320 337,307 335,304 335,301 332,299 328,299 321,307 321,309 318,312 318,328 321,331 321,334 330,344 332,344 335,347 337,347 339,350 363,350 365,347 370,347 374,342 377,342 381,336 381,334 386,328 386,326 388,323 388,320 390,317 390,299 388,296 388,293 386,291 386,288 384,285 384,282 381,280 381,277 377,272 377,269 372,264 374,261 379,261 381,264 384,264 386,266 388,266 390,269 393,269 397,274 400,274 404,280 407,280 409,282 416,282 428,269 430,269 439,258 442,258 444,256 444,253 439,247 437,247 416,223 411,223 409,226 407,226 404,229 402,229 397,234 395,234 393,237 390,237 386,242 381,242 379,245 377,245 374,242 374,239 379,234 379,231 384,226 384,223 386,220 386,218 388,215 388,212 390,210 390,204 393,202 393,194 390,191 390,183 388,180 388,177 384,172 384,169 379,164 377,164 372,158 370,158 367,156 358,156 356,153 349,153 346,156 339,156 337,158 335,158 332,161 330,161 325,167 325,169 321,175 321,183 318,185 321,188 321,194 323,196 323,199 330,207 332,207 337,202 337,199 339,196 339,183 344,177 346,177 353,185 353,188 356,191 356,196 358,199 358,215 356,218 356,220 353,223 353,226 342,239 323,239 321,237 316,237 314,234 311,234 309,231 307,231 304,229 302,229 300,226 297,226 293,220 290,220 288,218 286,218 283,215 281,215 281,237 279,239 253,239 251,237 251,204 253,202 272,202 269,199 269,196 267,194 267,191 265,188 265,185 262,183 262,180 260,177 260,175 258,172 258,169 256,167 256,164 253,161 253,158 251,156 251,134 265,118 267,118 269,115 272,115 274,113 281,113 283,115 290,115 293,118 295,118 297,121 300,121 302,123 302,126 304,129 304,132 300,137 288,137 286,140 283,137 279,142 279,145 281,148 281,150 283,150 288,156 290,156 293,158 304,158 307,156 309,156 314,150 316,150 316,148 321,142 321,140 323,137 323,132 325,129 325,110 323,107 323,102 321,99 321,97 307,80 304,80 302,78 297,78 295,75 281,75 279,78 274,78 272,80 269,80 267,83 265,83 260,88 258,88 253,94 251,94 249,91 249,86 251,83 251,80 253,78 253,75 258,70 258,67 262,61 262,59 267,53 267,45 251,26 251,24 244,16 244,13 242,13 230,26 230,29 214,48 218,53 218,56 221,59 221,61 "
     id="polygon1"
     transform="matrix(1.0840355,0,0,1,-40.109313,-13)" />
</svg>
