<svg xmlns="http://www.w3.org/2000/svg" xmlns:xlink="http://www.w3.org/1999/xlink" width="500" zoomAndPan="magnify" viewBox="0 0 375 374.999991" height="500" preserveAspectRatio="xMidYMid meet" version="1.2"><g id="d73b611df7"><path style=" stroke:none;fill-rule:nonzero;fill:#fbb03b;fill-opacity:1;" d="M 314.136719 148.714844 C 323.179688 146.433594 329.9375 148.875 334.988281 156.039062 C 347.859375 137.804688 339.46875 106.46875 319.59375 97.515625 C 310.308594 93.363281 298.902344 95.398438 291.898438 102.644531 C 286.113281 108.667969 284.972656 118.269531 289.046875 126.65625 C 291.816406 132.273438 297.761719 135.773438 303.300781 133.574219 C 306.234375 132.351562 309.574219 128.933594 310.226562 125.921875 C 310.878906 122.910156 307.539062 119.734375 303.382812 119.492188 C 302.40625 119.429688 301.457031 119.238281 300.53125 118.921875 C 301.511719 109.15625 312.261719 104.269531 320.734375 109.5625 C 329.207031 114.851562 331.894531 129.261719 323.667969 137.15625 C 318.617188 141.957031 311.9375 145.050781 305.664062 149.121094 C 306.316406 154.898438 307.050781 161.820312 307.863281 168.820312 L 305.664062 170.203125 L 289.453125 159.457031 C 285.542969 164.503906 280.085938 169.632812 272.183594 169.796875 C 267.703125 169.878906 263.144531 168.085938 259.152344 167.273438 C 273.8125 149.527344 282.203125 145.375 274.382812 121.121094 C 263.792969 131.621094 252.796875 135.039062 242.289062 122.097656 C 274.222656 119.085938 265.914062 83.269531 306.804688 80.257812 C 302.160156 72.445312 298.820312 64.628906 303.464844 56.488281 C 305.421875 53.070312 308.679688 50.386719 312.34375 46.316406 C 313.320312 49.652344 314.054688 51.035156 314.136719 52.5 C 315.03125 65.445312 321.46875 75.457031 330.429688 84.246094 C 351.6875 104.027344 359.019531 119.898438 355.597656 149.039062 C 371.402344 155.226562 375.230469 162.144531 368.957031 174.597656 C 362.765625 169.46875 355.679688 165.96875 347.777344 169.308594 C 343.378906 171.097656 339.714844 174.515625 335.804688 177.203125 L 336.699219 178.34375 C 341.75 178.914062 347.046875 178.667969 351.605469 180.378906 C 354.867188 181.515625 357.144531 185.34375 359.835938 188.027344 C 357.066406 190.550781 354.621094 194.296875 351.28125 195.519531 C 347.941406 196.738281 341.585938 196.65625 336.863281 197.144531 C 342.566406 208.378906 352.175781 209.84375 369.121094 201.460938 C 375.554688 212.773438 370.503906 222.378906 356.332031 225.714844 C 357.390625 248.75 355.273438 266.253906 338.246094 283.425781 C 334.746094 286.925781 331.324219 290.507812 327.820312 294.089844 C 320.164062 301.90625 315.195312 311.019531 314.21875 322.089844 C 314.023438 323.652344 313.753906 325.199219 313.402344 326.730469 C 301.511719 325.023438 298.902344 313.707031 306.234375 295.230469 C 293.609375 294.007812 281.960938 289.449219 274.382812 278.707031 C 266.808594 267.960938 258.824219 253.878906 242.535156 254.613281 C 247.585938 242.402344 258.90625 242.484375 274.304688 253.878906 C 282.613281 231.496094 273.242188 225.308594 260.046875 209.109375 C 268.355469 202.109375 278.945312 204.390625 289.617188 216.109375 L 305.421875 205.285156 L 307.78125 206.75 C 307.050781 213.507812 306.398438 220.179688 305.664062 227.179688 C 309.738281 229.214844 314.542969 231.089844 318.78125 233.855469 C 328.71875 240.367188 331.488281 251.273438 326.109375 260.390625 C 322.6875 266.253906 316.5 269.265625 310.390625 267.71875 C 304.28125 266.171875 300.941406 262.996094 299.960938 256.566406 C 301.347656 256.320312 302.324219 255.996094 303.21875 255.914062 C 307.457031 255.753906 311.039062 253.636719 310.226562 249.648438 C 309.410156 245.660156 306.316406 243.054688 303.382812 241.914062 C 298.171875 240.042969 293.121094 242.238281 289.941406 247.125 C 289.503906 247.792969 289.105469 248.488281 288.742188 249.203125 C 288.382812 249.917969 288.066406 250.652344 287.789062 251.402344 C 287.511719 252.15625 287.28125 252.921875 287.089844 253.699219 C 286.902344 254.476562 286.757812 255.261719 286.660156 256.058594 C 286.558594 256.851562 286.503906 257.652344 286.496094 258.453125 C 286.488281 259.253906 286.523438 260.050781 286.609375 260.847656 C 286.691406 261.644531 286.816406 262.433594 286.992188 263.214844 C 287.164062 264 287.378906 264.769531 287.640625 265.523438 C 287.902344 266.28125 288.203125 267.023438 288.546875 267.746094 C 288.894531 268.46875 289.277344 269.171875 289.703125 269.847656 C 290.128906 270.527344 290.589844 271.179688 291.089844 271.808594 C 291.589844 272.433594 292.121094 273.03125 292.691406 273.597656 C 293.257812 274.160156 293.855469 274.695312 294.484375 275.191406 C 295.109375 275.6875 295.765625 276.148438 296.445312 276.574219 C 297.125 276.996094 297.828125 277.378906 298.554688 277.722656 C 299.277344 278.066406 300.019531 278.367188 300.777344 278.625 C 333.199219 288.066406 350.304688 244.84375 335.316406 219.285156 C 330.101562 226.613281 323.257812 229.296875 314.054688 226.691406 C 314.707031 224.578125 315.277344 222.785156 315.929688 220.914062 C 318.859375 211.308594 315.601562 202.925781 306.234375 199.34375 C 293.933594 194.621094 281.0625 192.585938 267.949219 194.460938 C 249.785156 197.308594 241.066406 216.4375 246.6875 233.613281 C 229.011719 231.089844 225.917969 215.542969 238.949219 195.027344 C 223.878906 199.34375 209.21875 199.832031 193.984375 193.484375 C 200.257812 208.460938 199.605469 222.949219 195.613281 238.660156 C 204.738281 231.660156 213.371094 226.285156 224.125 231.496094 C 229.988281 234.34375 233.085938 238.820312 234.144531 245.414062 C 228.117188 245.414062 221.84375 244.355469 216.058594 245.578125 C 198.21875 249.566406 189.667969 266.902344 197.324219 282.449219 C 202.78125 293.601562 217.933594 296.9375 225.101562 287.984375 C 227.625 284.8125 228.441406 279.601562 228.441406 275.367188 C 228.441406 271.136719 225.507812 269.265625 221.355469 270.078125 C 214.59375 271.300781 215.976562 277.402344 217.28125 282.695312 C 211.90625 283.101562 208.566406 280.742188 206.527344 276.507812 C 204.492188 272.277344 203.921875 265.519531 207.996094 260.796875 C 214.023438 253.796875 222.007812 252.578125 230.476562 254.773438 C 245.957031 258.925781 244.246094 272.765625 243.917969 285.949219 C 280.902344 285.707031 269.496094 328.035156 304.851562 329.5 C 303.21875 341.953125 289.292969 345.207031 275.605469 336.824219 C 275.28125 337.070312 274.792969 337.148438 274.628906 337.476562 C 256.707031 374.835938 217.199219 343.253906 198.464844 372.070312 C 192.519531 358.230469 202.539062 346.753906 222.738281 342.847656 C 222.085938 337.230469 220.785156 331.535156 221.027344 325.917969 C 221.597656 307.601562 245.710938 304.996094 250.433594 322.335938 C 251.167969 325.347656 248.480469 329.253906 247.339844 332.753906 L 245.386719 332.265625 C 243.835938 321.359375 233.085938 324.207031 232.515625 333.242188 C 233.003906 340.730469 241.394531 344.394531 249.050781 341.136719 C 258.5 337.070312 263.222656 327.871094 260.863281 318.183594 C 258.5 308.496094 248.480469 301.089844 237.808594 302.148438 C 223.796875 303.777344 210.4375 312.160156 196.589844 303.042969 C 196.589844 315.335938 201.398438 318.347656 216.957031 316.71875 C 219.238281 326.8125 213.617188 331.289062 197.976562 331.941406 C 196.429688 338.207031 195.9375 348.21875 188.199219 349.441406 C 180.460938 348.058594 180.300781 338.046875 178.914062 331.613281 C 163.761719 331.777344 158.792969 328.277344 158.792969 316.636719 C 165.066406 316.71875 172.234375 319.894531 177.039062 313.542969 C 178.996094 310.941406 179.648438 307.277344 180.300781 303.695312 C 170.035156 309.230469 160.261719 307.113281 150.078125 304.589844 C 143.886719 303.042969 137.042969 302.3125 130.773438 303.207031 C 121.894531 304.507812 115.539062 313.054688 114.96875 322.011719 C 114.398438 330.964844 119.613281 337.800781 127.675781 341.21875 C 135.742188 344.636719 142.582031 340.976562 143.886719 334.136719 C 144.621094 330.394531 144.292969 326.648438 139.652344 325.671875 C 135.007812 324.695312 132.484375 325.917969 131.667969 330.636719 C 131.472656 331.167969 131.203125 331.65625 130.855469 332.101562 C 124.253906 327.546875 123.765625 319.648438 129.792969 314.519531 C 134.601562 310.289062 140.382812 310.207031 146.167969 311.996094 C 146.800781 312.167969 147.414062 312.390625 148.011719 312.660156 C 148.609375 312.933594 149.179688 313.25 149.726562 313.613281 C 150.273438 313.976562 150.785156 314.382812 151.265625 314.828125 C 151.746094 315.277344 152.1875 315.757812 152.585938 316.277344 C 152.988281 316.792969 153.347656 317.339844 153.660156 317.917969 C 153.972656 318.492188 154.234375 319.089844 154.453125 319.710938 C 154.667969 320.328125 154.832031 320.960938 154.945312 321.605469 C 155.058594 322.25 155.121094 322.902344 155.128906 323.554688 C 155.371094 329.824219 154.394531 336.171875 153.90625 343.171875 C 170.769531 344.148438 181.195312 353.265625 179.078125 371.664062 C 158.386719 343.417969 117.984375 375 101.855469 336.335938 C 94.765625 341.136719 87.355469 343.824219 79.699219 340.082031 C 76.113281 338.289062 73.425781 334.625 69.027344 330.71875 C 72.609375 329.742188 73.996094 329.253906 75.460938 329.011719 C 85.644531 327.546875 93.300781 322.660156 97.863281 313.21875 C 105.113281 299.542969 114.15625 285.054688 132.238281 286.03125 C 131.996094 273.660156 130.691406 259.820312 144.78125 255.183594 C 153.011719 252.496094 160.992188 253.472656 167.671875 259.742188 C 171.828125 263.730469 172.886719 270.324219 170.441406 275.855469 C 168 281.390625 165.3125 282.371094 159.28125 282.449219 C 159.691406 280.824219 160.015625 279.359375 160.34375 277.890625 C 161.15625 273.902344 159.363281 270.648438 155.617188 270.402344 C 140.792969 272.03125 147.472656 291.40625 160.015625 292.789062 C 172.5625 294.171875 183.148438 283.265625 182.011719 269.101562 C 180.871094 254.9375 164.984375 242.078125 149.34375 244.683594 C 146.984375 245.089844 144.78125 245.578125 142.339844 246.148438 C 145.027344 227.996094 161.890625 224.738281 181.195312 238.902344 C 176.632812 223.601562 175.902344 209.03125 182.660156 193.644531 C 167.429688 199.507812 153.011719 199.425781 136.71875 194.703125 C 144.78125 204.308594 149.425781 213.425781 144.050781 224.414062 C 141.445312 229.625 136.554688 232.636719 130.363281 233.53125 C 130.609375 229.054688 131.34375 224.496094 131.097656 220.019531 C 130.121094 204.472656 119.285156 193.808594 103.726562 194.132812 C 94.136719 194.359375 84.660156 195.527344 75.296875 197.632812 C 59.496094 201.054688 57.214844 212.121094 62.183594 226.125 C 54.28125 229.378906 48.582031 227.589844 40.597656 218.714844 C 38.886719 224.414062 36.851562 229.296875 36.035156 234.34375 C 33.183594 251.03125 40.921875 268.695312 54.039062 276.507812 C 75.378906 289.207031 101.121094 266.253906 85.316406 245.660156 C 80.1875 239.308594 67.96875 240.125 66.417969 248.183594 C 65.441406 252.984375 67.96875 255.183594 75.949219 256.484375 C 76.359375 261.207031 73.75 264.21875 69.921875 266.253906 C 49.640625 276.835938 31.800781 238.171875 71.144531 227.75 C 70.25 220.667969 69.433594 213.75 68.621094 206.832031 L 70.820312 205.285156 L 86.785156 215.867188 C 98.675781 204.144531 108.125 202.191406 118.472656 210.738281 C 98.921875 219.855469 96.886719 235.566406 101.9375 254.207031 C 117.738281 242.566406 128.246094 242.320312 133.625 253.554688 C 132.5625 253.960938 131.585938 254.613281 130.445312 254.695312 C 122.789062 255.425781 117.003906 259.414062 112.363281 265.277344 C 109.105469 269.265625 105.847656 273.414062 102.914062 277.648438 C 95.746094 288.066406 85.644531 293.277344 73.261719 294.742188 C 72.109375 294.898438 70.96875 295.117188 69.839844 295.394531 C 77.988281 307.929688 77.5 320.136719 63.488281 327.707031 C 60.148438 281.3125 13.878906 289.207031 20.722656 226.449219 C 5 219.855469 0.84375 211.632812 7.851562 201.542969 C 23.109375 210.113281 33.78125 208.542969 39.863281 196.820312 C 33.917969 197.144531 27.402344 196.902344 22.105469 194.050781 C 19.824219 192.75 17.054688 189.65625 17.21875 187.460938 C 17.382812 185.261719 20.234375 182.003906 22.59375 181.273438 C 27.972656 179.480469 33.671875 178.992188 39.210938 178.015625 C 35.792969 167.355469 21.535156 165.074219 8.257812 173.945312 C 0.195312 165.074219 5.570312 154.003906 20.3125 149.363281 C 20.3125 144.644531 20.394531 139.921875 20.3125 135.203125 C 19.90625 118.921875 26.015625 105.246094 36.933594 93.527344 C 39.945312 90.269531 43.042969 87.097656 46.21875 84.085938 C 55.910156 74.96875 61.695312 63.980469 62.671875 50.546875 C 62.765625 49.804688 62.984375 49.097656 63.324219 48.433594 C 75.378906 51.6875 77.824219 62.839844 70.328125 80.015625 C 83.039062 81.886719 94.929688 85.957031 102.425781 97.269531 C 109.917969 108.585938 117.65625 121.28125 133.296875 120.792969 C 130.691406 133.25 115.945312 133.25 102.75 121.527344 C 94.847656 136.015625 99.65625 150.015625 117.574219 165.074219 C 109.429688 173.621094 97.78125 171.34375 86.378906 158.886719 C 84.015625 161.085938 81.734375 163.609375 79.128906 165.480469 C 76.519531 167.355469 73.425781 168.332031 68.621094 170.609375 C 69.515625 162.0625 70.328125 154.980469 71.144531 147.574219 C 63.160156 145.621094 55.667969 142.039062 50.699219 134.632812 C 45.730469 127.226562 47.277344 115.992188 54.527344 110.457031 C 58.679688 107.28125 63.242188 106.386719 68.128906 108.421875 C 73.019531 110.457031 75.949219 113.0625 76.03125 118.679688 C 75.34375 119.058594 74.609375 119.300781 73.832031 119.410156 C 69.515625 119.65625 66.175781 121.121094 66.339844 126.085938 C 66.5 131.050781 69.757812 133.492188 74.484375 134.0625 C 84.585938 135.285156 92.8125 122.828125 89.472656 111.433594 C 85.398438 97.515625 68.863281 91.164062 55.261719 98.328125 C 36.605469 108.179688 29.601562 136.179688 41.25 155.957031 C 46.542969 149.285156 53.140625 146.273438 62.183594 148.714844 C 61.53125 151.238281 60.800781 153.597656 60.230469 156.039062 C 58.109375 165.15625 61.53125 172.726562 70.085938 176.0625 C 82.710938 181.027344 96.070312 182.980469 109.511719 181.027344 C 126.945312 178.585938 134.355469 159.539062 130.039062 142.121094 C 147.472656 143.828125 150.8125 160.433594 137.453125 180.539062 C 152.523438 176.226562 166.941406 175.414062 182.417969 182.167969 C 176.390625 166.785156 176.144531 152.214844 181.601562 136.097656 C 172.152344 143.75 163.273438 149.285156 152.195312 143.910156 C 146.492188 141.144531 143.074219 136.421875 142.09375 129.992188 C 148.691406 129.992188 155.210938 131.132812 161.15625 129.75 C 179.730469 125.433594 187.875 105.328125 177.691406 90.515625 C 170.851562 80.503906 156.511719 79.363281 150.324219 88.804688 C 148.285156 91.734375 147.714844 96.210938 147.878906 99.957031 C 148.042969 103.699219 151.21875 106.304688 155.617188 105.246094 C 162.132812 103.621094 160.75 98.410156 159.203125 93.28125 C 164.25 91.816406 167.429688 94.503906 169.546875 98.164062 C 172.640625 103.292969 172.886719 108.992188 169.140625 113.957031 C 163.925781 120.957031 156.433594 122.339844 148.203125 121.121094 C 139.976562 119.898438 134.84375 115.339844 133.214844 107.609375 C 131.996094 101.992188 132.15625 96.132812 131.667969 90.1875 C 131.585938 90.1875 131.34375 89.699219 131.015625 89.699219 C 116.273438 89.539062 107.476562 80.257812 101.445312 68.535156 C 95.417969 56.816406 87.027344 45.988281 71.308594 46.234375 C 74.160156 33.210938 87.191406 30.199219 101.121094 38.664062 C 101.445312 38.417969 102.097656 38.09375 102.261719 37.6875 C 119.367188 1.140625 159.851562 31.828125 178.019531 3.5 C 183.71875 17.824219 173.703125 29.222656 153.582031 32.476562 C 154.234375 38.09375 155.453125 43.710938 155.371094 49.328125 C 155.210938 61.457031 143.96875 68.128906 132.890625 63.082031 C 124.417969 59.175781 123.195312 49.328125 130.855469 43.140625 C 131.425781 44.441406 131.503906 46.316406 132.402344 46.804688 C 134.519531 48.1875 137.371094 50.058594 139.40625 49.570312 C 141.445312 49.082031 143.722656 45.988281 143.96875 43.875 C 144.785156 36.304688 136.882812 31.339844 128.898438 33.863281 C 120.914062 36.386719 114.644531 44.605469 114.886719 52.828125 C 115.132812 61.046875 121.8125 71.058594 130.609375 72.28125 C 137.359375 73.109375 144.011719 72.621094 150.566406 70.816406 C 160.585938 68.292969 170.117188 66.257812 179.566406 72.28125 C 180.949219 60.886719 174.921875 57.058594 159.28125 58.933594 C 157.328125 48.1875 165.066406 42.488281 179.078125 44.199219 C 179.8125 39.964844 179.972656 35.488281 181.601562 31.746094 C 182.660156 29.222656 186 26.128906 188.28125 26.128906 C 190.5625 26.128906 193.902344 29.222656 195.042969 31.746094 C 196.183594 34.269531 196.835938 39.722656 197.730469 44.199219 C 203.597656 43.222656 210.277344 42.652344 214.59375 48.511719 C 216.710938 51.199219 217.199219 55.023438 218.667969 59.011719 C 201.480469 57.140625 197 59.910156 196.429688 72.769531 C 213.046875 61.210938 228.6875 76.1875 245.875 72.363281 C 264.445312 68.945312 267.460938 39.558594 247.992188 34.351562 C 244.40625 33.375 239.355469 33.941406 236.425781 35.976562 C 233.492188 38.011719 232.921875 42.328125 232.757812 45.746094 C 232.757812 47.128906 236.996094 50.058594 238.785156 49.734375 C 240.578125 49.410156 243.917969 46.398438 246.933594 44.199219 C 252.144531 48.023438 252.878906 55.921875 247.015625 60.96875 C 241.148438 66.011719 236.425781 65.199219 230.640625 63.492188 C 224.855469 61.78125 221.597656 57.710938 221.355469 52.175781 C 221.109375 46.640625 222.085938 39.152344 222.496094 32.558594 C 201.886719 27.675781 193.414062 18.152344 198.21875 3.175781 C 218.339844 32.722656 255.40625 0 275.363281 38.582031 C 290.023438 30.441406 301.917969 33.128906 305.011719 45.339844 C 304.851562 45.5 304.523438 45.988281 304.28125 45.988281 C 290.757812 46.964844 281.878906 54.128906 276.257812 66.339844 C 274.222656 70.980469 270.71875 74.96875 267.542969 79.117188 C 261.839844 86.6875 253.695312 89.457031 244.082031 89.539062 C 244.164062 101.503906 246.035156 115.015625 232.597656 119.898438 C 224.695312 122.910156 216.792969 122.257812 209.949219 116.804688 C 209.371094 116.328125 208.832031 115.808594 208.332031 115.246094 C 207.835938 114.683594 207.382812 114.089844 206.980469 113.457031 C 206.574219 112.824219 206.222656 112.164062 205.921875 111.472656 C 205.625 110.785156 205.378906 110.078125 205.191406 109.351562 C 205 108.625 204.871094 107.890625 204.796875 107.140625 C 204.722656 106.394531 204.710938 105.648438 204.753906 104.898438 C 204.796875 104.148438 204.902344 103.40625 205.0625 102.675781 C 205.222656 101.941406 205.441406 101.226562 205.714844 100.527344 C 207.667969 95.316406 210.847656 93.121094 217.039062 92.875 C 216.304688 97.921875 214.59375 104.351562 221.4375 105.410156 C 225.589844 106.144531 227.789062 103.699219 228.765625 100.039062 C 231.046875 91.574219 223.878906 82.863281 214.59375 82.457031 C 201.070312 81.96875 191.378906 96.621094 195.449219 111.269531 C 199.523438 125.921875 217.769531 134.226562 233.816406 129.667969 C 233.085938 146.515625 215.898438 150.179688 196.671875 137.96875 C 197.324219 145.214844 198.628906 152.375 198.464844 159.457031 C 198.300781 166.539062 196.671875 173.621094 195.53125 181.273438 C 209.460938 175.820312 224.042969 175.820312 239.113281 180.703125 C 225.917969 159.785156 229.011719 144.15625 244.976562 142.203125 C 245.710938 149.363281 245.386719 156.855469 247.421875 163.609375 C 251.003906 175.492188 259.882812 181.761719 272.183594 181.355469 C 282.167969 181.089844 292.023438 179.84375 301.753906 177.609375 C 317.882812 173.785156 319.1875 163.203125 314.136719 148.714844 Z M 314.136719 148.714844 "/></g></svg>